<svg xmlns="http://www.w3.org/2000/svg" viewBox="0 0 444.2 59.9"><defs><style>.cls-1{fill:#57c9e8;}</style></defs><title>vicki-aubin-logo</title><g id="Layer_2" data-name="Layer 2"><g id="Layer_1-2" data-name="Layer 1"><path class="cls-1" d="M5.8,1.21,24.51,52.72h.16L43.21,1.21H49L27.65,58.77H21.28L0,1.21Z"/><path class="cls-1" d="M60,1.21V58.77H54.5V1.21Z"/><path class="cls-1" d="M111.69,12.7a16.18,16.18,0,0,0-4-4.4,18,18,0,0,0-5.24-2.7,19.56,19.56,0,0,0-6-.92,20.78,20.78,0,0,0-9.84,2.17,19.54,19.54,0,0,0-6.73,5.77A24.68,24.68,0,0,0,76,20.72a34.85,34.85,0,0,0,0,18.5,24.6,24.6,0,0,0,3.87,8.14,19.54,19.54,0,0,0,6.73,5.77,20.78,20.78,0,0,0,9.84,2.17,17.45,17.45,0,0,0,7.25-1.45,17.06,17.06,0,0,0,5.57-4A20.18,20.18,0,0,0,113,44.06a24.35,24.35,0,0,0,1.86-7.22h5.48a31.2,31.2,0,0,1-2.5,9.6,23.41,23.41,0,0,1-5,7.25,21.24,21.24,0,0,1-7.21,4.6,25.44,25.44,0,0,1-9.23,1.61,27.13,27.13,0,0,1-11.89-2.46A24.68,24.68,0,0,1,76,50.87a27.9,27.9,0,0,1-5.08-9.51A37.74,37.74,0,0,1,69.25,30a37.74,37.74,0,0,1,1.69-11.37A28.37,28.37,0,0,1,76,9.07a24.42,24.42,0,0,1,8.51-6.61,28.79,28.79,0,0,1,19.91-1.25,22.9,22.9,0,0,1,7.09,3.59,20.66,20.66,0,0,1,5.32,5.84,19.63,19.63,0,0,1,2.71,8h-5.49A18.08,18.08,0,0,0,111.69,12.7Z"/><path class="cls-1" d="M134.23,1.21v31l33.45-31h7.42L149.38,25l26.93,33.78h-7.09l-23.95-30L134.23,39V58.77h-5.48V1.21Z"/><path class="cls-1" d="M186.87,1.21V58.77h-5.48V1.21Z"/><path class="cls-1" d="M244.27,1.21l22.57,57.56H261l-7-17.9h-26.2l-6.93,17.9H215L238.14,1.21Zm7.82,35L241,6.69,229.44,36.2Z"/><path class="cls-1" d="M277,1.21V36.84a28.07,28.07,0,0,0,1.13,8.51,14.2,14.2,0,0,0,3.3,5.72,13,13,0,0,0,5.32,3.23,26,26,0,0,0,14.27,0,12.83,12.83,0,0,0,5.32-3.23,14.1,14.1,0,0,0,3.31-5.72,28.07,28.07,0,0,0,1.13-8.51V1.21h5.48V38.05A28.14,28.14,0,0,1,315,46.48a18.44,18.44,0,0,1-3.95,7,18.81,18.81,0,0,1-6.93,4.72,31.17,31.17,0,0,1-20.48,0,18.81,18.81,0,0,1-6.93-4.72,18.44,18.44,0,0,1-4-7,27.83,27.83,0,0,1-1.25-8.43V1.21Z"/><path class="cls-1" d="M351.65,1.21a35.31,35.31,0,0,1,7,.68,16.94,16.94,0,0,1,5.88,2.34,12.44,12.44,0,0,1,4.07,4.36,13.48,13.48,0,0,1,1.53,6.73,13.65,13.65,0,0,1-.72,4.39,13.31,13.31,0,0,1-2.06,3.87,12.72,12.72,0,0,1-3.14,2.94,11.79,11.79,0,0,1-4.07,1.7v.16A13.58,13.58,0,0,1,369,32.93a14,14,0,0,1,3.3,9.48,22.92,22.92,0,0,1-.24,3.1A15,15,0,0,1,369,52.64a12.47,12.47,0,0,1-3.67,3.11,22.22,22.22,0,0,1-5.65,2.17,32.75,32.75,0,0,1-8,.85H327.31V1.21Zm0,25.23a19.12,19.12,0,0,0,5.73-.76,11.91,11.91,0,0,0,4-2.1,8.76,8.76,0,0,0,2.42-3.1,9.2,9.2,0,0,0,.8-3.79q0-10.8-13-10.81H332.79V26.44Zm0,27.65a30.93,30.93,0,0,0,5.81-.52,13.34,13.34,0,0,0,4.83-1.89A9.77,9.77,0,0,0,365.6,48a12.24,12.24,0,0,0,1.21-5.77c0-3.7-1.31-6.49-3.91-8.34s-6.36-2.78-11.25-2.78H332.79v23Z"/><path class="cls-1" d="M387,1.21V58.77h-5.48V1.21Z"/><path class="cls-1" d="M405,1.21,438.56,49.9h.16V1.21h5.48V58.77h-6.13L404.54,10.08h-.16V58.77h-5.49V1.21Z"/></g></g></svg>